<svg xmlns="http://www.w3.org/2000/svg" viewBox="0 0 128 128" role="img" aria-labelledby="title desc">
  <title id="title">Angela y el Reino Arcoiris de las Palabras</title>
  <desc id="desc">Icono con arcoiris, estrella y letra A</desc>
  <defs>
    <linearGradient id="sky" x1="0" x2="1" y1="0" y2="1">
      <stop offset="0" stop-color="#8ee7ff"/>
      <stop offset="1" stop-color="#fff4a8"/>
    </linearGradient>
    <filter id="shadow" x="-20%" y="-20%" width="140%" height="140%">
      <feDropShadow dx="0" dy="5" stdDeviation="4" flood-color="#5b3b91" flood-opacity=".28"/>
    </filter>
  </defs>
  <rect width="128" height="128" rx="28" fill="url(#sky)"/>
  <path d="M18 85a46 46 0 0 1 92 0" fill="none" stroke="#ff4f79" stroke-width="12" stroke-linecap="round"/>
  <path d="M29 85a35 35 0 0 1 70 0" fill="none" stroke="#ffb23f" stroke-width="11" stroke-linecap="round"/>
  <path d="M40 85a24 24 0 0 1 48 0" fill="none" stroke="#ffe66d" stroke-width="10" stroke-linecap="round"/>
  <path d="M51 85a13 13 0 0 1 26 0" fill="none" stroke="#55d987" stroke-width="9" stroke-linecap="round"/>
  <g fill="#fff" filter="url(#shadow)">
    <circle cx="25" cy="87" r="13"/>
    <circle cx="38" cy="84" r="16"/>
    <circle cx="51" cy="90" r="12"/>
    <circle cx="77" cy="90" r="12"/>
    <circle cx="90" cy="84" r="16"/>
    <circle cx="103" cy="87" r="13"/>
  </g>
  <path d="m64 18 6.3 13 14.3 2.1-10.3 10 2.4 14.2L64 50.6 51.3 57.3l2.4-14.2-10.3-10 14.3-2.1Z" fill="#fff" stroke="#7c4dff" stroke-width="4" stroke-linejoin="round"/>
  <text x="64" y="101" text-anchor="middle" font-family="Arial, sans-serif" font-size="46" font-weight="900" fill="#7c4dff" stroke="#fff" stroke-width="5" paint-order="stroke">A</text>
</svg>
